<svg version="1.0" xmlns="http://www.w3.org/2000/svg" preserveAspectRatio="xMidYMid meet" viewBox="0 6.45 939.74 431.41">  <g transform="translate(0.000000,438.000000) scale(0.100000,-0.100000)" fill="#000000" stroke="none"> <path d="M6815 4310 c-492 -48 -806 -364 -844 -850 -26 -332 69 -624 260 -806 125 -118 233 -176 419 -225 109 -29 372 -37 500 -15 410 71 665 302 718 649 l9 57 -264 0 c-242 0 -264 -1 -270 -17 -57 -171 -158 -251 -340 -273 -212 -26 -366 50 -451 223 -44 92 -62 174 -62 293 0 358 216 582 515 536 152 -24 248 -92 307 -218 l30 -64 264 0 264 0 -6 33 c-43 242 -149 404 -353 535 -170 110 -443 166 -696 142z"></path> <path d="M2235 4271 c-3 -5 -140 -400 -306 -878 -165 -477 -309 -892 -319 -920 l-20 -53 258 0 258 0 47 150 47 150 363 0 363 0 28 -97 c15 -54 34 -122 42 -150 l15 -53 265 0 c145 0 264 2 264 4 0 4 -589 1707 -622 1799 l-21 57 -328 0 c-190 0 -330 -4 -334 -9z m439 -779 c59 -195 110 -360 113 -368 4 -12 -32 -14 -232 -14 -186 0 -236 3 -232 13 2 6 56 175 118 374 63 199 117 359 120 355 3 -4 54 -166 113 -360z"></path> <path d="M5320 3350 l0 -930 255 0 255 0 0 930 0 930 -255 0 -255 0 0 -930z"></path> <path d="M0 3346 l0 -926 488 0 c270 0 525 5 572 10 176 21 310 78 402 171 68 67 102 135 125 246 19 93 8 217 -26 296 -30 69 -130 165 -214 206 l-69 33 49 28 c97 56 178 164 202 270 15 63 13 196 -3 255 -41 155 -151 257 -333 307 -75 21 -99 22 -635 26 l-558 3 0 -925z m907 530 c24 -10 56 -33 72 -52 71 -81 44 -231 -50 -279 -40 -21 -166 -35 -316 -35 l-123 0 0 196 0 196 188 -4 c148 -4 196 -8 229 -22z m72 -716 c24 -14 53 -37 64 -52 40 -53 40 -173 0 -226 -52 -70 -105 -82 -364 -82 l-189 0 0 196 0 196 223 -4 c215 -3 223 -4 266 -28z"></path> <path d="M4195 4229 c-95 -14 -232 -57 -309 -96 -87 -45 -202 -156 -240 -230 -75 -149 -75 -337 0 -485 51 -101 178 -196 329 -246 33 -12 185 -46 338 -76 284 -57 339 -75 377 -123 19 -24 21 -38 18 -90 -3 -55 -8 -67 -38 -98 -54 -55 -106 -70 -245 -70 -99 1 -130 5 -176 23 -103 41 -170 121 -187 224 l-8 43 -248 3 -249 2 6 -73 c35 -407 367 -635 892 -614 220 9 380 55 520 148 91 61 145 122 190 214 44 91 59 174 52 283 -10 162 -70 271 -198 361 -99 70 -196 101 -512 165 -349 70 -388 86 -407 171 -30 134 136 230 336 196 152 -27 228 -88 249 -204 l7 -37 249 0 249 0 0 30 c0 54 -30 180 -57 239 -18 37 -53 82 -102 131 -120 120 -275 185 -496 210 -105 12 -255 11 -340 -1z"></path> <path d="M932 2173 c-5 -16 -184 -509 -396 -1097 -212 -587 -386 -1070 -386 -1072 0 -3 93 -3 206 -2 l206 3 394 1090 c216 600 394 1093 394 1098 0 4 -92 7 -204 7 l-204 0 -10 -27z"></path> <path d="M2020 1221 l0 -931 438 0 c460 0 554 6 710 46 97 24 252 93 312 138 114 86 221 228 268 356 44 123 57 207 57 385 0 173 -8 233 -47 355 -96 303 -352 502 -719 560 -44 7 -263 14 -546 17 l-473 5 0 -931z m888 489 c137 -23 228 -75 295 -170 60 -86 82 -171 82 -320 -1 -184 -39 -294 -133 -382 -103 -96 -182 -118 -439 -118 l-183 0 0 500 0 500 158 0 c86 0 185 -5 220 -10z"></path> <path d="M3947 2143 c-4 -3 -7 -422 -7 -930 l0 -923 735 0 735 0 0 210 0 210 -485 0 -486 0 3 158 3 157 423 3 422 2 0 200 0 200 -422 2 -423 3 0 140 0 140 473 3 472 2 0 215 0 215 -718 0 c-395 0 -722 -3 -725 -7z"></path> <path d="M7240 1930 l0 -220 290 0 290 0 0 -710 0 -710 255 0 255 0 0 710 0 710 295 0 295 0 -2 218 -3 217 -837 3 -838 2 0 -220z"></path> <path d="M5595 2128 c-3 -7 -4 -425 -3 -928 l3 -915 253 -3 252 -2 0 285 0 285 173 0 c293 0 430 22 577 92 62 30 101 57 145 102 114 116 157 239 157 451 0 213 -43 336 -157 450 -102 103 -245 163 -440 185 -137 15 -954 13 -960 -2z m897 -392 c92 -34 130 -94 136 -217 7 -142 -27 -211 -127 -256 -28 -12 -79 -17 -223 -21 l-188 -4 0 262 0 262 178 -4 c133 -4 189 -9 224 -22z"></path> <path d="M8904 1065 c-191 -60 -305 -274 -248 -466 68 -228 317 -338 530 -234 146 72 237 252 205 407 -29 143 -119 245 -255 291 -58 20 -173 21 -232 2z m246 -76 c179 -84 241 -303 131 -462 -89 -127 -252 -174 -389 -112 -103 47 -163 123 -183 233 -46 247 213 447 441 341z"></path> <path d="M8850 715 l0 -185 45 0 45 0 0 65 0 65 45 0 c44 0 46 -2 92 -65 45 -63 48 -65 90 -65 24 0 43 2 43 6 0 3 -18 32 -40 64 -22 32 -40 61 -40 64 0 2 14 18 30 34 25 26 30 38 30 79 0 99 -42 123 -215 123 l-125 0 0 -185z m244 109 c19 -18 21 -85 4 -102 -7 -7 -40 -12 -80 -12 l-68 0 0 65 0 65 64 0 c45 0 69 -5 80 -16z"></path> </g> </svg>